<svg width="32" height="32" viewBox="0 0 32 32" xmlns="http://www.w3.org/2000/svg">
  <!-- Rocket body -->
  <path d="M12 20 L12 10 Q12 6 16 6 Q20 6 20 10 L20 20 Q20 22 18 24 L14 24 Q12 22 12 20 Z" 
        fill="#10b981" stroke="#065f46" stroke-width="1"/>
  
  <!-- Rocket nose -->
  <path d="M14 6 L16 2 L18 6 Z" fill="#059669" stroke="#065f46" stroke-width="1"/>
  
  <!-- Window -->
  <circle cx="16" cy="12" r="3" fill="#1e293b" stroke="#065f46" stroke-width="1"/>
  <circle cx="16" cy="12" r="2" fill="#334155"/>
  <circle cx="16" cy="12" r="1" fill="#64748b"/>
  
  <!-- Side fins -->
  <path d="M12 16 L8 20 L10 22 L12 20 Z" fill="#059669" stroke="#065f46" stroke-width="0.5"/>
  <path d="M20 16 L24 20 L22 22 L20 20 Z" fill="#059669" stroke="#065f46" stroke-width="0.5"/>
  
  <!-- Flame -->
  <path d="M14 24 L15 28 L16 26 L17 28 L18 24" fill="#f97316" stroke="#ea580c" stroke-width="0.5"/>
  <path d="M14.5 24 L15.5 27 L16 25 L16.5 27 L17.5 24" fill="#fbbf24"/>
  <path d="M15 24 L15.5 26 L16 25 L16.5 26 L17 24" fill="#fef3c7"/>
</svg> 